<svg height="600" viewBox="0 -600 600 600" width="600" xmlns="http://www.w3.org/2000/svg"><g fill="#f00" fill-opacity=".2"><path d="m0 0 100-100" stroke="#00f"/><path d="m0-100 100 100" stroke="#00f"/><path d="m0-50h100" stroke="#f00"/><path d="m0-100h100" stroke="#f00"/><path d="m0-100 100-100" stroke="#00f"/><path d="m0-200 100 100" stroke="#00f"/><path d="m0-150h100" stroke="#f00"/><path d="m0-200h100" stroke="#f00"/><path d="m0-200 100-100" stroke="#00f"/><path d="m0-300 100 100" stroke="#00f"/><path d="m0-250h100" stroke="#f00"/><path d="m0-300h100" stroke="#f00"/><path d="m0-300 100-100" stroke="#00f"/><path d="m0-400 100 100" stroke="#00f"/><path d="m0-350h100" stroke="#f00"/><path d="m0-400h100" stroke="#f00"/><path d="m0-400 100-100" stroke="#00f"/><path d="m0-500 100 100" stroke="#00f"/><path d="m0-450h100" stroke="#f00"/><path d="m0-500h100" stroke="#f00"/><path d="m0-500 100-100" stroke="#00f"/><path d="m0-600 100 100" stroke="#00f"/><path d="m0-550h100" stroke="#f00"/><path d="m0-600h100" stroke="#f00"/><path d="m100 0 100-100" stroke="#00f"/><path d="m100-100 100 100" stroke="#00f"/><path d="m100-50h100" stroke="#f00"/><path d="m100-100h100" stroke="#f00"/><path d="m100-100 100-100" stroke="#00f"/><path d="m100-200 100 100" stroke="#00f"/><path d="m100-150h100" stroke="#f00"/><path d="m100-200h100" stroke="#f00"/><path d="m100-200 100-100" stroke="#00f"/><path d="m100-300 100 100" stroke="#00f"/><path d="m100-250h100" stroke="#f00"/><path d="m100-300h100" stroke="#f00"/><path d="m100-300 100-100" stroke="#00f"/><path d="m100-400 100 100" stroke="#00f"/><path d="m100-350h100" stroke="#f00"/><path d="m100-400h100" stroke="#f00"/><path d="m100-400 100-100" stroke="#00f"/><path d="m100-500 100 100" stroke="#00f"/><path d="m100-450h100" stroke="#f00"/><path d="m100-500h100" stroke="#f00"/><path d="m100-500 100-100" stroke="#00f"/><path d="m100-600 100 100" stroke="#00f"/><path d="m100-550h100" stroke="#f00"/><path d="m100-600h100" stroke="#f00"/><path d="m200 0 100-100" stroke="#00f"/><path d="m200-100 100 100" stroke="#00f"/><path d="m200-50h100" stroke="#f00"/><path d="m200-100h100" stroke="#f00"/><path d="m200-100 100-100" stroke="#00f"/><path d="m200-200 100 100" stroke="#00f"/><path d="m200-150h100" stroke="#f00"/><path d="m200-200h100" stroke="#f00"/><path d="m200-200 100-100" stroke="#00f"/><path d="m200-300 100 100" stroke="#00f"/><path d="m200-250h100" stroke="#f00"/><path d="m200-300h100" stroke="#f00"/><path d="m200-300 100-100" stroke="#00f"/><path d="m200-400 100 100" stroke="#00f"/><path d="m200-350h100" stroke="#f00"/><path d="m200-400h100" stroke="#f00"/><path d="m200-400 100-100" stroke="#00f"/><path d="m200-500 100 100" stroke="#00f"/><path d="m200-450h100" stroke="#f00"/><path d="m200-500h100" stroke="#f00"/><path d="m200-500 100-100" stroke="#00f"/><path d="m200-600 100 100" stroke="#00f"/><path d="m200-550h100" stroke="#f00"/><path d="m200-600h100" stroke="#f00"/><path d="m300 0 100-100" stroke="#00f"/><path d="m300-100 100 100" stroke="#00f"/><path d="m300-50h100" stroke="#f00"/><path d="m300-100h100" stroke="#f00"/><path d="m300-100 100-100" stroke="#00f"/><path d="m300-200 100 100" stroke="#00f"/><path d="m300-150h100" stroke="#f00"/><path d="m300-200h100" stroke="#f00"/><path d="m300-200 100-100" stroke="#00f"/><path d="m300-300 100 100" stroke="#00f"/><path d="m300-250h100" stroke="#f00"/><path d="m300-300h100" stroke="#f00"/><path d="m300-300 100-100" stroke="#00f"/><path d="m300-400 100 100" stroke="#00f"/><path d="m300-350h100" stroke="#f00"/><path d="m300-400h100" stroke="#f00"/><path d="m300-400 100-100" stroke="#00f"/><path d="m300-500 100 100" stroke="#00f"/><path d="m300-450h100" stroke="#f00"/><path d="m300-500h100" stroke="#f00"/><path d="m300-500 100-100" stroke="#00f"/><path d="m300-600 100 100" stroke="#00f"/><path d="m300-550h100" stroke="#f00"/><path d="m300-600h100" stroke="#f00"/><path d="m400 0 100-100" stroke="#00f"/><path d="m400-100 100 100" stroke="#00f"/><path d="m400-50h100" stroke="#f00"/><path d="m400-100h100" stroke="#f00"/><path d="m400-100 100-100" stroke="#00f"/><path d="m400-200 100 100" stroke="#00f"/><path d="m400-150h100" stroke="#f00"/><path d="m400-200h100" stroke="#f00"/><path d="m400-200 100-100" stroke="#00f"/><path d="m400-300 100 100" stroke="#00f"/><path d="m400-250h100" stroke="#f00"/><path d="m400-300h100" stroke="#f00"/><path d="m400-300 100-100" stroke="#00f"/><path d="m400-400 100 100" stroke="#00f"/><path d="m400-350h100" stroke="#f00"/><path d="m400-400h100" stroke="#f00"/><path d="m400-400 100-100" stroke="#00f"/><path d="m400-500 100 100" stroke="#00f"/><path d="m400-450h100" stroke="#f00"/><path d="m400-500h100" stroke="#f00"/><path d="m400-500 100-100" stroke="#00f"/><path d="m400-600 100 100" stroke="#00f"/><path d="m400-550h100" stroke="#f00"/><path d="m400-600h100" stroke="#f00"/><path d="m500 0 100-100" stroke="#00f"/><path d="m500-100 100 100" stroke="#00f"/><path d="m500-50h100" stroke="#f00"/><path d="m500-100h100" stroke="#f00"/><path d="m500-100 100-100" stroke="#00f"/><path d="m500-200 100 100" stroke="#00f"/><path d="m500-150h100" stroke="#f00"/><path d="m500-200h100" stroke="#f00"/><path d="m500-200 100-100" stroke="#00f"/><path d="m500-300 100 100" stroke="#00f"/><path d="m500-250h100" stroke="#f00"/><path d="m500-300h100" stroke="#f00"/><path d="m500-300 100-100" stroke="#00f"/><path d="m500-400 100 100" stroke="#00f"/><path d="m500-350h100" stroke="#f00"/><path d="m500-400h100" stroke="#f00"/><path d="m500-400 100-100" stroke="#00f"/><path d="m500-500 100 100" stroke="#00f"/><path d="m500-450h100" stroke="#f00"/><path d="m500-500h100" stroke="#f00"/><path d="m500-500 100-100" stroke="#00f"/><path d="m500-600 100 100" stroke="#00f"/><g stroke="#f00"><path d="m500-550h100"/><path d="m500-600h100"/></g></g></svg>