<?xml version="1.0" encoding="UTF-8"?>
<svg xmlns="http://www.w3.org/2000/svg" xmlns:xlink="http://www.w3.org/1999/xlink"
     width="600" height="600" viewBox="0 -600 600 600">
<defs>
</defs>
<path d="M0,-0.0 L0.0,-0.0" stroke="red" stroke-width="1" />
<path d="M0,-0.0 L0.0,-0.0" stroke="red" stroke-width="1" />
<path d="M0,0 L0,-0.0" stroke="red" stroke-width="1" />
<path d="M0,0 L0.0,-0.0" stroke="blue" stroke-width="1" />
<path d="M0,-0.0 L0.0,0" stroke="blue" stroke-width="1" />
<path d="M0.0,-0.0 L0.0,-0.0" stroke="red" stroke-width="1" />
<path d="M0.0,-0.0 L0.0,-0.0" stroke="red" stroke-width="1" />
<path d="M0.0,0 L0.0,-0.0" stroke="red" stroke-width="1" />
<path d="M0.0,-0.0 L0.0,0" stroke="blue" stroke-width="1" />
<path d="M0.0,0 L0.0,-0.0" stroke="blue" stroke-width="1" />
<path d="M0.0,-0.0 L0.0,-0.0" stroke="blue" stroke-width="1" />
<path d="M0.0,-0.0 L0.0,-0.0" stroke="blue" stroke-width="1" />
<path d="M0,-10.0 L0.0,-10.0" stroke="red" stroke-width="1" />
<path d="M0,-20.0 L0.0,-20.0" stroke="red" stroke-width="1" />
<path d="M0,-0.0 L0,-20.0" stroke="red" stroke-width="1" />
<path d="M0,-0.0 L0.0,-20.0" stroke="blue" stroke-width="1" />
<path d="M0,-20.0 L0.0,-0.0" stroke="blue" stroke-width="1" />
<path d="M0.0,-10.0 L0.0,-10.0" stroke="red" stroke-width="1" />
<path d="M0.0,-20.0 L0.0,-20.0" stroke="red" stroke-width="1" />
<path d="M0.0,-0.0 L0.0,-20.0" stroke="red" stroke-width="1" />
<path d="M0.0,-10.0 L0.0,-0.0" stroke="blue" stroke-width="1" />
<path d="M0.0,-0.0 L0.0,-10.0" stroke="blue" stroke-width="1" />
<path d="M0.0,-10.0 L0.0,-20.0" stroke="blue" stroke-width="1" />
<path d="M0.0,-20.0 L0.0,-10.0" stroke="blue" stroke-width="1" />
<path d="M0,-40.0 L0.0,-40.0" stroke="red" stroke-width="1" />
<path d="M0,-60.0 L0.0,-60.0" stroke="red" stroke-width="1" />
<path d="M0,-20.0 L0,-60.0" stroke="red" stroke-width="1" />
<path d="M0,-20.0 L0.0,-60.0" stroke="blue" stroke-width="1" />
<path d="M0,-60.0 L0.0,-20.0" stroke="blue" stroke-width="1" />
<path d="M0.0,-40.0 L0.0,-40.0" stroke="red" stroke-width="1" />
<path d="M0.0,-60.0 L0.0,-60.0" stroke="red" stroke-width="1" />
<path d="M0.0,-20.0 L0.0,-60.0" stroke="red" stroke-width="1" />
<path d="M0.0,-40.0 L0.0,-20.0" stroke="blue" stroke-width="1" />
<path d="M0.0,-20.0 L0.0,-40.0" stroke="blue" stroke-width="1" />
<path d="M0.0,-40.0 L0.0,-60.0" stroke="blue" stroke-width="1" />
<path d="M0.0,-60.0 L0.0,-40.0" stroke="blue" stroke-width="1" />
<path d="M0,-90.0 L0.0,-90.0" stroke="red" stroke-width="1" />
<path d="M0,-120.0 L0.0,-120.0" stroke="red" stroke-width="1" />
<path d="M0,-60.0 L0,-120.0" stroke="red" stroke-width="1" />
<path d="M0,-60.0 L0.0,-120.0" stroke="blue" stroke-width="1" />
<path d="M0,-120.0 L0.0,-60.0" stroke="blue" stroke-width="1" />
<path d="M0.0,-90.0 L0.0,-90.0" stroke="red" stroke-width="1" />
<path d="M0.0,-120.0 L0.0,-120.0" stroke="red" stroke-width="1" />
<path d="M0.0,-60.0 L0.0,-120.0" stroke="red" stroke-width="1" />
<path d="M0.0,-90.0 L0.0,-60.0" stroke="blue" stroke-width="1" />
<path d="M0.0,-60.0 L0.0,-90.0" stroke="blue" stroke-width="1" />
<path d="M0.0,-90.0 L0.0,-120.0" stroke="blue" stroke-width="1" />
<path d="M0.0,-120.0 L0.0,-90.0" stroke="blue" stroke-width="1" />
<path d="M0,-160.0 L0.0,-160.0" stroke="red" stroke-width="1" />
<path d="M0,-200.0 L0.0,-200.0" stroke="red" stroke-width="1" />
<path d="M0,-120.0 L0,-200.0" stroke="red" stroke-width="1" />
<path d="M0,-120.0 L0.0,-200.0" stroke="blue" stroke-width="1" />
<path d="M0,-200.0 L0.0,-120.0" stroke="blue" stroke-width="1" />
<path d="M0.0,-160.0 L0.0,-160.0" stroke="red" stroke-width="1" />
<path d="M0.0,-200.0 L0.0,-200.0" stroke="red" stroke-width="1" />
<path d="M0.0,-120.0 L0.0,-200.0" stroke="red" stroke-width="1" />
<path d="M0.0,-160.0 L0.0,-120.0" stroke="blue" stroke-width="1" />
<path d="M0.0,-120.0 L0.0,-160.0" stroke="blue" stroke-width="1" />
<path d="M0.0,-160.0 L0.0,-200.0" stroke="blue" stroke-width="1" />
<path d="M0.0,-200.0 L0.0,-160.0" stroke="blue" stroke-width="1" />
<path d="M0,-250.0 L0.0,-250.0" stroke="red" stroke-width="1" />
<path d="M0,-300.0 L0.0,-300.0" stroke="red" stroke-width="1" />
<path d="M0,-200.0 L0,-300.0" stroke="red" stroke-width="1" />
<path d="M0,-200.0 L0.0,-300.0" stroke="blue" stroke-width="1" />
<path d="M0,-300.0 L0.0,-200.0" stroke="blue" stroke-width="1" />
<path d="M0.0,-250.0 L0.0,-250.0" stroke="red" stroke-width="1" />
<path d="M0.0,-300.0 L0.0,-300.0" stroke="red" stroke-width="1" />
<path d="M0.0,-200.0 L0.0,-300.0" stroke="red" stroke-width="1" />
<path d="M0.0,-250.0 L0.0,-200.0" stroke="blue" stroke-width="1" />
<path d="M0.0,-200.0 L0.0,-250.0" stroke="blue" stroke-width="1" />
<path d="M0.0,-250.0 L0.0,-300.0" stroke="blue" stroke-width="1" />
<path d="M0.0,-300.0 L0.0,-250.0" stroke="blue" stroke-width="1" />
<path d="M0.0,-0.0 L40.0,-0.0" stroke="red" stroke-width="1" />
<path d="M0.0,-0.0 L40.0,-0.0" stroke="red" stroke-width="1" />
<path d="M0.0,0 L0.0,-0.0" stroke="red" stroke-width="1" />
<path d="M0.0,0 L40.0,-0.0" stroke="blue" stroke-width="1" />
<path d="M0.0,-0.0 L40.0,0" stroke="blue" stroke-width="1" />
<path d="M40.0,-0.0 L80.0,-0.0" stroke="red" stroke-width="1" />
<path d="M40.0,-0.0 L80.0,-0.0" stroke="red" stroke-width="1" />
<path d="M40.0,0 L40.0,-0.0" stroke="red" stroke-width="1" />
<path d="M40.0,-0.0 L60.0,0" stroke="blue" stroke-width="1" />
<path d="M60.0,0 L80.0,-0.0" stroke="blue" stroke-width="1" />
<path d="M40.0,-0.0 L60.0,-0.0" stroke="blue" stroke-width="1" />
<path d="M60.0,-0.0 L80.0,-0.0" stroke="blue" stroke-width="1" />
<path d="M0.0,-10.0 L40.0,-10.0" stroke="red" stroke-width="1" />
<path d="M0.0,-20.0 L40.0,-20.0" stroke="red" stroke-width="1" />
<path d="M0.0,-0.0 L0.0,-20.0" stroke="red" stroke-width="1" />
<path d="M0.0,-0.0 L40.0,-20.0" stroke="blue" stroke-width="1" />
<path d="M0.0,-20.0 L40.0,-0.0" stroke="blue" stroke-width="1" />
<path d="M40.0,-10.0 L80.0,-10.0" stroke="red" stroke-width="1" />
<path d="M40.0,-20.0 L80.0,-20.0" stroke="red" stroke-width="1" />
<path d="M40.0,-0.0 L40.0,-20.0" stroke="red" stroke-width="1" />
<path d="M40.0,-10.0 L60.0,-0.0" stroke="blue" stroke-width="1" />
<path d="M60.0,-0.0 L80.0,-10.0" stroke="blue" stroke-width="1" />
<path d="M40.0,-10.0 L60.0,-20.0" stroke="blue" stroke-width="1" />
<path d="M60.0,-20.0 L80.0,-10.0" stroke="blue" stroke-width="1" />
<path d="M0.0,-40.0 L40.0,-40.0" stroke="red" stroke-width="1" />
<path d="M0.0,-60.0 L40.0,-60.0" stroke="red" stroke-width="1" />
<path d="M0.0,-20.0 L0.0,-60.0" stroke="red" stroke-width="1" />
<path d="M0.0,-20.0 L40.0,-60.0" stroke="blue" stroke-width="1" />
<path d="M0.0,-60.0 L40.0,-20.0" stroke="blue" stroke-width="1" />
<path d="M40.0,-40.0 L80.0,-40.0" stroke="red" stroke-width="1" />
<path d="M40.0,-60.0 L80.0,-60.0" stroke="red" stroke-width="1" />
<path d="M40.0,-20.0 L40.0,-60.0" stroke="red" stroke-width="1" />
<path d="M40.0,-40.0 L60.0,-20.0" stroke="blue" stroke-width="1" />
<path d="M60.0,-20.0 L80.0,-40.0" stroke="blue" stroke-width="1" />
<path d="M40.0,-40.0 L60.0,-60.0" stroke="blue" stroke-width="1" />
<path d="M60.0,-60.0 L80.0,-40.0" stroke="blue" stroke-width="1" />
<path d="M0.0,-90.0 L40.0,-90.0" stroke="red" stroke-width="1" />
<path d="M0.0,-120.0 L40.0,-120.0" stroke="red" stroke-width="1" />
<path d="M0.0,-60.0 L0.0,-120.0" stroke="red" stroke-width="1" />
<path d="M0.0,-60.0 L40.0,-120.0" stroke="blue" stroke-width="1" />
<path d="M0.0,-120.0 L40.0,-60.0" stroke="blue" stroke-width="1" />
<path d="M40.0,-90.0 L80.0,-90.0" stroke="red" stroke-width="1" />
<path d="M40.0,-120.0 L80.0,-120.0" stroke="red" stroke-width="1" />
<path d="M40.0,-60.0 L40.0,-120.0" stroke="red" stroke-width="1" />
<path d="M40.0,-90.0 L60.0,-60.0" stroke="blue" stroke-width="1" />
<path d="M60.0,-60.0 L80.0,-90.0" stroke="blue" stroke-width="1" />
<path d="M40.0,-90.0 L60.0,-120.0" stroke="blue" stroke-width="1" />
<path d="M60.0,-120.0 L80.0,-90.0" stroke="blue" stroke-width="1" />
<path d="M0.0,-160.0 L40.0,-160.0" stroke="red" stroke-width="1" />
<path d="M0.0,-200.0 L40.0,-200.0" stroke="red" stroke-width="1" />
<path d="M0.0,-120.0 L0.0,-200.0" stroke="red" stroke-width="1" />
<path d="M0.0,-120.0 L40.0,-200.0" stroke="blue" stroke-width="1" />
<path d="M0.0,-200.0 L40.0,-120.0" stroke="blue" stroke-width="1" />
<path d="M40.0,-160.0 L80.0,-160.0" stroke="red" stroke-width="1" />
<path d="M40.0,-200.0 L80.0,-200.0" stroke="red" stroke-width="1" />
<path d="M40.0,-120.0 L40.0,-200.0" stroke="red" stroke-width="1" />
<path d="M40.0,-160.0 L60.0,-120.0" stroke="blue" stroke-width="1" />
<path d="M60.0,-120.0 L80.0,-160.0" stroke="blue" stroke-width="1" />
<path d="M40.0,-160.0 L60.0,-200.0" stroke="blue" stroke-width="1" />
<path d="M60.0,-200.0 L80.0,-160.0" stroke="blue" stroke-width="1" />
<path d="M0.0,-250.0 L40.0,-250.0" stroke="red" stroke-width="1" />
<path d="M0.0,-300.0 L40.0,-300.0" stroke="red" stroke-width="1" />
<path d="M0.0,-200.0 L0.0,-300.0" stroke="red" stroke-width="1" />
<path d="M0.0,-200.0 L40.0,-300.0" stroke="blue" stroke-width="1" />
<path d="M0.0,-300.0 L40.0,-200.0" stroke="blue" stroke-width="1" />
<path d="M40.0,-250.0 L80.0,-250.0" stroke="red" stroke-width="1" />
<path d="M40.0,-300.0 L80.0,-300.0" stroke="red" stroke-width="1" />
<path d="M40.0,-200.0 L40.0,-300.0" stroke="red" stroke-width="1" />
<path d="M40.0,-250.0 L60.0,-200.0" stroke="blue" stroke-width="1" />
<path d="M60.0,-200.0 L80.0,-250.0" stroke="blue" stroke-width="1" />
<path d="M40.0,-250.0 L60.0,-300.0" stroke="blue" stroke-width="1" />
<path d="M60.0,-300.0 L80.0,-250.0" stroke="blue" stroke-width="1" />
<path d="M80.0,-0.0 L160.0,-0.0" stroke="red" stroke-width="1" />
<path d="M80.0,-0.0 L160.0,-0.0" stroke="red" stroke-width="1" />
<path d="M80.0,0 L80.0,-0.0" stroke="red" stroke-width="1" />
<path d="M80.0,0 L160.0,-0.0" stroke="blue" stroke-width="1" />
<path d="M80.0,-0.0 L160.0,0" stroke="blue" stroke-width="1" />
<path d="M160.0,-0.0 L240.0,-0.0" stroke="red" stroke-width="1" />
<path d="M160.0,-0.0 L240.0,-0.0" stroke="red" stroke-width="1" />
<path d="M160.0,0 L160.0,-0.0" stroke="red" stroke-width="1" />
<path d="M160.0,-0.0 L200.0,0" stroke="blue" stroke-width="1" />
<path d="M200.0,0 L240.0,-0.0" stroke="blue" stroke-width="1" />
<path d="M160.0,-0.0 L200.0,-0.0" stroke="blue" stroke-width="1" />
<path d="M200.0,-0.0 L240.0,-0.0" stroke="blue" stroke-width="1" />
<path d="M80.0,-10.0 L160.0,-10.0" stroke="red" stroke-width="1" />
<path d="M80.0,-20.0 L160.0,-20.0" stroke="red" stroke-width="1" />
<path d="M80.0,-0.0 L80.0,-20.0" stroke="red" stroke-width="1" />
<path d="M80.0,-0.0 L160.0,-20.0" stroke="blue" stroke-width="1" />
<path d="M80.0,-20.0 L160.0,-0.0" stroke="blue" stroke-width="1" />
<path d="M160.0,-10.0 L240.0,-10.0" stroke="red" stroke-width="1" />
<path d="M160.0,-20.0 L240.0,-20.0" stroke="red" stroke-width="1" />
<path d="M160.0,-0.0 L160.0,-20.0" stroke="red" stroke-width="1" />
<path d="M160.0,-10.0 L200.0,-0.0" stroke="blue" stroke-width="1" />
<path d="M200.0,-0.0 L240.0,-10.0" stroke="blue" stroke-width="1" />
<path d="M160.0,-10.0 L200.0,-20.0" stroke="blue" stroke-width="1" />
<path d="M200.0,-20.0 L240.0,-10.0" stroke="blue" stroke-width="1" />
<path d="M80.0,-40.0 L160.0,-40.0" stroke="red" stroke-width="1" />
<path d="M80.0,-60.0 L160.0,-60.0" stroke="red" stroke-width="1" />
<path d="M80.0,-20.0 L80.0,-60.0" stroke="red" stroke-width="1" />
<path d="M80.0,-20.0 L160.0,-60.0" stroke="blue" stroke-width="1" />
<path d="M80.0,-60.0 L160.0,-20.0" stroke="blue" stroke-width="1" />
<path d="M160.0,-40.0 L240.0,-40.0" stroke="red" stroke-width="1" />
<path d="M160.0,-60.0 L240.0,-60.0" stroke="red" stroke-width="1" />
<path d="M160.0,-20.0 L160.0,-60.0" stroke="red" stroke-width="1" />
<path d="M160.0,-40.0 L200.0,-20.0" stroke="blue" stroke-width="1" />
<path d="M200.0,-20.0 L240.0,-40.0" stroke="blue" stroke-width="1" />
<path d="M160.0,-40.0 L200.0,-60.0" stroke="blue" stroke-width="1" />
<path d="M200.0,-60.0 L240.0,-40.0" stroke="blue" stroke-width="1" />
<path d="M80.0,-90.0 L160.0,-90.0" stroke="red" stroke-width="1" />
<path d="M80.0,-120.0 L160.0,-120.0" stroke="red" stroke-width="1" />
<path d="M80.0,-60.0 L80.0,-120.0" stroke="red" stroke-width="1" />
<path d="M80.0,-60.0 L160.0,-120.0" stroke="blue" stroke-width="1" />
<path d="M80.0,-120.0 L160.0,-60.0" stroke="blue" stroke-width="1" />
<path d="M160.0,-90.0 L240.0,-90.0" stroke="red" stroke-width="1" />
<path d="M160.0,-120.0 L240.0,-120.0" stroke="red" stroke-width="1" />
<path d="M160.0,-60.0 L160.0,-120.0" stroke="red" stroke-width="1" />
<path d="M160.0,-90.0 L200.0,-60.0" stroke="blue" stroke-width="1" />
<path d="M200.0,-60.0 L240.0,-90.0" stroke="blue" stroke-width="1" />
<path d="M160.0,-90.0 L200.0,-120.0" stroke="blue" stroke-width="1" />
<path d="M200.0,-120.0 L240.0,-90.0" stroke="blue" stroke-width="1" />
<path d="M80.0,-160.0 L160.0,-160.0" stroke="red" stroke-width="1" />
<path d="M80.0,-200.0 L160.0,-200.0" stroke="red" stroke-width="1" />
<path d="M80.0,-120.0 L80.0,-200.0" stroke="red" stroke-width="1" />
<path d="M80.0,-120.0 L160.0,-200.0" stroke="blue" stroke-width="1" />
<path d="M80.0,-200.0 L160.0,-120.0" stroke="blue" stroke-width="1" />
<path d="M160.0,-160.0 L240.0,-160.0" stroke="red" stroke-width="1" />
<path d="M160.0,-200.0 L240.0,-200.0" stroke="red" stroke-width="1" />
<path d="M160.0,-120.0 L160.0,-200.0" stroke="red" stroke-width="1" />
<path d="M160.0,-160.0 L200.0,-120.0" stroke="blue" stroke-width="1" />
<path d="M200.0,-120.0 L240.0,-160.0" stroke="blue" stroke-width="1" />
<path d="M160.0,-160.0 L200.0,-200.0" stroke="blue" stroke-width="1" />
<path d="M200.0,-200.0 L240.0,-160.0" stroke="blue" stroke-width="1" />
<path d="M80.0,-250.0 L160.0,-250.0" stroke="red" stroke-width="1" />
<path d="M80.0,-300.0 L160.0,-300.0" stroke="red" stroke-width="1" />
<path d="M80.0,-200.0 L80.0,-300.0" stroke="red" stroke-width="1" />
<path d="M80.0,-200.0 L160.0,-300.0" stroke="blue" stroke-width="1" />
<path d="M80.0,-300.0 L160.0,-200.0" stroke="blue" stroke-width="1" />
<path d="M160.0,-250.0 L240.0,-250.0" stroke="red" stroke-width="1" />
<path d="M160.0,-300.0 L240.0,-300.0" stroke="red" stroke-width="1" />
<path d="M160.0,-200.0 L160.0,-300.0" stroke="red" stroke-width="1" />
<path d="M160.0,-250.0 L200.0,-200.0" stroke="blue" stroke-width="1" />
<path d="M200.0,-200.0 L240.0,-250.0" stroke="blue" stroke-width="1" />
<path d="M160.0,-250.0 L200.0,-300.0" stroke="blue" stroke-width="1" />
<path d="M200.0,-300.0 L240.0,-250.0" stroke="blue" stroke-width="1" />
</svg>