<?xml version="1.0" encoding="UTF-8"?>
<svg xmlns="http://www.w3.org/2000/svg" xmlns:xlink="http://www.w3.org/1999/xlink"
     width="600" height="600" viewBox="0 -600 600 600">
<defs>
</defs>
<path d="M0,0 L20.0,-20.0" stroke="red" stroke-width="1" />
<path d="M0,-20.0 L20.0,0" stroke="red" stroke-width="1" />
<path d="M0,-10.0 L20.0,-10.0" stroke="blue" stroke-width="1" />
<path d="M0,-20.0 L20.0,-20.0" stroke="blue" stroke-width="1" />
<path d="M0,-20.0 L20.0,-60.0" stroke="red" stroke-width="1" />
<path d="M0,-60.0 L20.0,-20.0" stroke="red" stroke-width="1" />
<path d="M0,-40.0 L20.0,-40.0" stroke="blue" stroke-width="1" />
<path d="M0,-60.0 L20.0,-60.0" stroke="blue" stroke-width="1" />
<path d="M0,-60.0 L20.0,-120.0" stroke="red" stroke-width="1" />
<path d="M0,-120.0 L20.0,-60.0" stroke="red" stroke-width="1" />
<path d="M0,-90.0 L20.0,-90.0" stroke="blue" stroke-width="1" />
<path d="M0,-120.0 L20.0,-120.0" stroke="blue" stroke-width="1" />
<path d="M0,-120.0 L20.0,-200.0" stroke="red" stroke-width="1" />
<path d="M0,-200.0 L20.0,-120.0" stroke="red" stroke-width="1" />
<path d="M0,-160.0 L20.0,-160.0" stroke="blue" stroke-width="1" />
<path d="M0,-200.0 L20.0,-200.0" stroke="blue" stroke-width="1" />
<path d="M0,-200.0 L20.0,-300.0" stroke="red" stroke-width="1" />
<path d="M0,-300.0 L20.0,-200.0" stroke="red" stroke-width="1" />
<path d="M0,-250.0 L20.0,-250.0" stroke="blue" stroke-width="1" />
<path d="M0,-300.0 L20.0,-300.0" stroke="blue" stroke-width="1" />
<path d="M0,-300.0 L20.0,-420.0" stroke="red" stroke-width="1" />
<path d="M0,-420.0 L20.0,-300.0" stroke="red" stroke-width="1" />
<path d="M0,-360.0 L20.0,-360.0" stroke="blue" stroke-width="1" />
<path d="M0,-420.0 L20.0,-420.0" stroke="blue" stroke-width="1" />
<path d="M0,-420.0 L20.0,-560.0" stroke="red" stroke-width="1" />
<path d="M0,-560.0 L20.0,-420.0" stroke="red" stroke-width="1" />
<path d="M0,-490.0 L20.0,-490.0" stroke="blue" stroke-width="1" />
<path d="M0,-560.0 L20.0,-560.0" stroke="blue" stroke-width="1" />
<path d="M0,-560.0 L20.0,-720.0" stroke="red" stroke-width="1" />
<path d="M0,-720.0 L20.0,-560.0" stroke="red" stroke-width="1" />
<path d="M0,-640.0 L20.0,-640.0" stroke="blue" stroke-width="1" />
<path d="M0,-720.0 L20.0,-720.0" stroke="blue" stroke-width="1" />
<path d="M0,-720.0 L20.0,-900.0" stroke="red" stroke-width="1" />
<path d="M0,-900.0 L20.0,-720.0" stroke="red" stroke-width="1" />
<path d="M0,-810.0 L20.0,-810.0" stroke="blue" stroke-width="1" />
<path d="M0,-900.0 L20.0,-900.0" stroke="blue" stroke-width="1" />
<path d="M20.0,0 L60.0,-20.0" stroke="red" stroke-width="1" />
<path d="M20.0,-20.0 L60.0,0" stroke="red" stroke-width="1" />
<path d="M20.0,-10.0 L60.0,-10.0" stroke="blue" stroke-width="1" />
<path d="M20.0,-20.0 L60.0,-20.0" stroke="blue" stroke-width="1" />
<path d="M20.0,-20.0 L60.0,-60.0" stroke="red" stroke-width="1" />
<path d="M20.0,-60.0 L60.0,-20.0" stroke="red" stroke-width="1" />
<path d="M20.0,-40.0 L60.0,-40.0" stroke="blue" stroke-width="1" />
<path d="M20.0,-60.0 L60.0,-60.0" stroke="blue" stroke-width="1" />
<path d="M20.0,-60.0 L60.0,-120.0" stroke="red" stroke-width="1" />
<path d="M20.0,-120.0 L60.0,-60.0" stroke="red" stroke-width="1" />
<path d="M20.0,-90.0 L60.0,-90.0" stroke="blue" stroke-width="1" />
<path d="M20.0,-120.0 L60.0,-120.0" stroke="blue" stroke-width="1" />
<path d="M20.0,-120.0 L60.0,-200.0" stroke="red" stroke-width="1" />
<path d="M20.0,-200.0 L60.0,-120.0" stroke="red" stroke-width="1" />
<path d="M20.0,-160.0 L60.0,-160.0" stroke="blue" stroke-width="1" />
<path d="M20.0,-200.0 L60.0,-200.0" stroke="blue" stroke-width="1" />
<path d="M20.0,-200.0 L60.0,-300.0" stroke="red" stroke-width="1" />
<path d="M20.0,-300.0 L60.0,-200.0" stroke="red" stroke-width="1" />
<path d="M20.0,-250.0 L60.0,-250.0" stroke="blue" stroke-width="1" />
<path d="M20.0,-300.0 L60.0,-300.0" stroke="blue" stroke-width="1" />
<path d="M20.0,-300.0 L60.0,-420.0" stroke="red" stroke-width="1" />
<path d="M20.0,-420.0 L60.0,-300.0" stroke="red" stroke-width="1" />
<path d="M20.0,-360.0 L60.0,-360.0" stroke="blue" stroke-width="1" />
<path d="M20.0,-420.0 L60.0,-420.0" stroke="blue" stroke-width="1" />
<path d="M20.0,-420.0 L60.0,-560.0" stroke="red" stroke-width="1" />
<path d="M20.0,-560.0 L60.0,-420.0" stroke="red" stroke-width="1" />
<path d="M20.0,-490.0 L60.0,-490.0" stroke="blue" stroke-width="1" />
<path d="M20.0,-560.0 L60.0,-560.0" stroke="blue" stroke-width="1" />
<path d="M20.0,-560.0 L60.0,-720.0" stroke="red" stroke-width="1" />
<path d="M20.0,-720.0 L60.0,-560.0" stroke="red" stroke-width="1" />
<path d="M20.0,-640.0 L60.0,-640.0" stroke="blue" stroke-width="1" />
<path d="M20.0,-720.0 L60.0,-720.0" stroke="blue" stroke-width="1" />
<path d="M20.0,-720.0 L60.0,-900.0" stroke="red" stroke-width="1" />
<path d="M20.0,-900.0 L60.0,-720.0" stroke="red" stroke-width="1" />
<path d="M20.0,-810.0 L60.0,-810.0" stroke="blue" stroke-width="1" />
<path d="M20.0,-900.0 L60.0,-900.0" stroke="blue" stroke-width="1" />
<path d="M60.0,0 L120.0,-20.0" stroke="red" stroke-width="1" />
<path d="M60.0,-20.0 L120.0,0" stroke="red" stroke-width="1" />
<path d="M60.0,-10.0 L120.0,-10.0" stroke="blue" stroke-width="1" />
<path d="M60.0,-20.0 L120.0,-20.0" stroke="blue" stroke-width="1" />
<path d="M60.0,-20.0 L120.0,-60.0" stroke="red" stroke-width="1" />
<path d="M60.0,-60.0 L120.0,-20.0" stroke="red" stroke-width="1" />
<path d="M60.0,-40.0 L120.0,-40.0" stroke="blue" stroke-width="1" />
<path d="M60.0,-60.0 L120.0,-60.0" stroke="blue" stroke-width="1" />
<path d="M60.0,-60.0 L120.0,-120.0" stroke="red" stroke-width="1" />
<path d="M60.0,-120.0 L120.0,-60.0" stroke="red" stroke-width="1" />
<path d="M60.0,-90.0 L120.0,-90.0" stroke="blue" stroke-width="1" />
<path d="M60.0,-120.0 L120.0,-120.0" stroke="blue" stroke-width="1" />
<path d="M60.0,-120.0 L120.0,-200.0" stroke="red" stroke-width="1" />
<path d="M60.0,-200.0 L120.0,-120.0" stroke="red" stroke-width="1" />
<path d="M60.0,-160.0 L120.0,-160.0" stroke="blue" stroke-width="1" />
<path d="M60.0,-200.0 L120.0,-200.0" stroke="blue" stroke-width="1" />
<path d="M60.0,-200.0 L120.0,-300.0" stroke="red" stroke-width="1" />
<path d="M60.0,-300.0 L120.0,-200.0" stroke="red" stroke-width="1" />
<path d="M60.0,-250.0 L120.0,-250.0" stroke="blue" stroke-width="1" />
<path d="M60.0,-300.0 L120.0,-300.0" stroke="blue" stroke-width="1" />
<path d="M60.0,-300.0 L120.0,-420.0" stroke="red" stroke-width="1" />
<path d="M60.0,-420.0 L120.0,-300.0" stroke="red" stroke-width="1" />
<path d="M60.0,-360.0 L120.0,-360.0" stroke="blue" stroke-width="1" />
<path d="M60.0,-420.0 L120.0,-420.0" stroke="blue" stroke-width="1" />
<path d="M60.0,-420.0 L120.0,-560.0" stroke="red" stroke-width="1" />
<path d="M60.0,-560.0 L120.0,-420.0" stroke="red" stroke-width="1" />
<path d="M60.0,-490.0 L120.0,-490.0" stroke="blue" stroke-width="1" />
<path d="M60.0,-560.0 L120.0,-560.0" stroke="blue" stroke-width="1" />
<path d="M60.0,-560.0 L120.0,-720.0" stroke="red" stroke-width="1" />
<path d="M60.0,-720.0 L120.0,-560.0" stroke="red" stroke-width="1" />
<path d="M60.0,-640.0 L120.0,-640.0" stroke="blue" stroke-width="1" />
<path d="M60.0,-720.0 L120.0,-720.0" stroke="blue" stroke-width="1" />
<path d="M60.0,-720.0 L120.0,-900.0" stroke="red" stroke-width="1" />
<path d="M60.0,-900.0 L120.0,-720.0" stroke="red" stroke-width="1" />
<path d="M60.0,-810.0 L120.0,-810.0" stroke="blue" stroke-width="1" />
<path d="M60.0,-900.0 L120.0,-900.0" stroke="blue" stroke-width="1" />
<path d="M120.0,0 L200.0,-20.0" stroke="red" stroke-width="1" />
<path d="M120.0,-20.0 L200.0,0" stroke="red" stroke-width="1" />
<path d="M120.0,-10.0 L200.0,-10.0" stroke="blue" stroke-width="1" />
<path d="M120.0,-20.0 L200.0,-20.0" stroke="blue" stroke-width="1" />
<path d="M120.0,-20.0 L200.0,-60.0" stroke="red" stroke-width="1" />
<path d="M120.0,-60.0 L200.0,-20.0" stroke="red" stroke-width="1" />
<path d="M120.0,-40.0 L200.0,-40.0" stroke="blue" stroke-width="1" />
<path d="M120.0,-60.0 L200.0,-60.0" stroke="blue" stroke-width="1" />
<path d="M120.0,-60.0 L200.0,-120.0" stroke="red" stroke-width="1" />
<path d="M120.0,-120.0 L200.0,-60.0" stroke="red" stroke-width="1" />
<path d="M120.0,-90.0 L200.0,-90.0" stroke="blue" stroke-width="1" />
<path d="M120.0,-120.0 L200.0,-120.0" stroke="blue" stroke-width="1" />
<path d="M120.0,-120.0 L200.0,-200.0" stroke="red" stroke-width="1" />
<path d="M120.0,-200.0 L200.0,-120.0" stroke="red" stroke-width="1" />
<path d="M120.0,-160.0 L200.0,-160.0" stroke="blue" stroke-width="1" />
<path d="M120.0,-200.0 L200.0,-200.0" stroke="blue" stroke-width="1" />
<path d="M120.0,-200.0 L200.0,-300.0" stroke="red" stroke-width="1" />
<path d="M120.0,-300.0 L200.0,-200.0" stroke="red" stroke-width="1" />
<path d="M120.0,-250.0 L200.0,-250.0" stroke="blue" stroke-width="1" />
<path d="M120.0,-300.0 L200.0,-300.0" stroke="blue" stroke-width="1" />
<path d="M120.0,-300.0 L200.0,-420.0" stroke="red" stroke-width="1" />
<path d="M120.0,-420.0 L200.0,-300.0" stroke="red" stroke-width="1" />
<path d="M120.0,-360.0 L200.0,-360.0" stroke="blue" stroke-width="1" />
<path d="M120.0,-420.0 L200.0,-420.0" stroke="blue" stroke-width="1" />
<path d="M120.0,-420.0 L200.0,-560.0" stroke="red" stroke-width="1" />
<path d="M120.0,-560.0 L200.0,-420.0" stroke="red" stroke-width="1" />
<path d="M120.0,-490.0 L200.0,-490.0" stroke="blue" stroke-width="1" />
<path d="M120.0,-560.0 L200.0,-560.0" stroke="blue" stroke-width="1" />
<path d="M120.0,-560.0 L200.0,-720.0" stroke="red" stroke-width="1" />
<path d="M120.0,-720.0 L200.0,-560.0" stroke="red" stroke-width="1" />
<path d="M120.0,-640.0 L200.0,-640.0" stroke="blue" stroke-width="1" />
<path d="M120.0,-720.0 L200.0,-720.0" stroke="blue" stroke-width="1" />
<path d="M120.0,-720.0 L200.0,-900.0" stroke="red" stroke-width="1" />
<path d="M120.0,-900.0 L200.0,-720.0" stroke="red" stroke-width="1" />
<path d="M120.0,-810.0 L200.0,-810.0" stroke="blue" stroke-width="1" />
<path d="M120.0,-900.0 L200.0,-900.0" stroke="blue" stroke-width="1" />
<path d="M200.0,0 L300.0,-20.0" stroke="red" stroke-width="1" />
<path d="M200.0,-20.0 L300.0,0" stroke="red" stroke-width="1" />
<path d="M200.0,-10.0 L300.0,-10.0" stroke="blue" stroke-width="1" />
<path d="M200.0,-20.0 L300.0,-20.0" stroke="blue" stroke-width="1" />
<path d="M200.0,-20.0 L300.0,-60.0" stroke="red" stroke-width="1" />
<path d="M200.0,-60.0 L300.0,-20.0" stroke="red" stroke-width="1" />
<path d="M200.0,-40.0 L300.0,-40.0" stroke="blue" stroke-width="1" />
<path d="M200.0,-60.0 L300.0,-60.0" stroke="blue" stroke-width="1" />
<path d="M200.0,-60.0 L300.0,-120.0" stroke="red" stroke-width="1" />
<path d="M200.0,-120.0 L300.0,-60.0" stroke="red" stroke-width="1" />
<path d="M200.0,-90.0 L300.0,-90.0" stroke="blue" stroke-width="1" />
<path d="M200.0,-120.0 L300.0,-120.0" stroke="blue" stroke-width="1" />
<path d="M200.0,-120.0 L300.0,-200.0" stroke="red" stroke-width="1" />
<path d="M200.0,-200.0 L300.0,-120.0" stroke="red" stroke-width="1" />
<path d="M200.0,-160.0 L300.0,-160.0" stroke="blue" stroke-width="1" />
<path d="M200.0,-200.0 L300.0,-200.0" stroke="blue" stroke-width="1" />
<path d="M200.0,-200.0 L300.0,-300.0" stroke="red" stroke-width="1" />
<path d="M200.0,-300.0 L300.0,-200.0" stroke="red" stroke-width="1" />
<path d="M200.0,-250.0 L300.0,-250.0" stroke="blue" stroke-width="1" />
<path d="M200.0,-300.0 L300.0,-300.0" stroke="blue" stroke-width="1" />
<path d="M200.0,-300.0 L300.0,-420.0" stroke="red" stroke-width="1" />
<path d="M200.0,-420.0 L300.0,-300.0" stroke="red" stroke-width="1" />
<path d="M200.0,-360.0 L300.0,-360.0" stroke="blue" stroke-width="1" />
<path d="M200.0,-420.0 L300.0,-420.0" stroke="blue" stroke-width="1" />
<path d="M200.0,-420.0 L300.0,-560.0" stroke="red" stroke-width="1" />
<path d="M200.0,-560.0 L300.0,-420.0" stroke="red" stroke-width="1" />
<path d="M200.0,-490.0 L300.0,-490.0" stroke="blue" stroke-width="1" />
<path d="M200.0,-560.0 L300.0,-560.0" stroke="blue" stroke-width="1" />
<path d="M200.0,-560.0 L300.0,-720.0" stroke="red" stroke-width="1" />
<path d="M200.0,-720.0 L300.0,-560.0" stroke="red" stroke-width="1" />
<path d="M200.0,-640.0 L300.0,-640.0" stroke="blue" stroke-width="1" />
<path d="M200.0,-720.0 L300.0,-720.0" stroke="blue" stroke-width="1" />
<path d="M200.0,-720.0 L300.0,-900.0" stroke="red" stroke-width="1" />
<path d="M200.0,-900.0 L300.0,-720.0" stroke="red" stroke-width="1" />
<path d="M200.0,-810.0 L300.0,-810.0" stroke="blue" stroke-width="1" />
<path d="M200.0,-900.0 L300.0,-900.0" stroke="blue" stroke-width="1" />
<path d="M300.0,0 L420.0,-20.0" stroke="red" stroke-width="1" />
<path d="M300.0,-20.0 L420.0,0" stroke="red" stroke-width="1" />
<path d="M300.0,-10.0 L420.0,-10.0" stroke="blue" stroke-width="1" />
<path d="M300.0,-20.0 L420.0,-20.0" stroke="blue" stroke-width="1" />
<path d="M300.0,-20.0 L420.0,-60.0" stroke="red" stroke-width="1" />
<path d="M300.0,-60.0 L420.0,-20.0" stroke="red" stroke-width="1" />
<path d="M300.0,-40.0 L420.0,-40.0" stroke="blue" stroke-width="1" />
<path d="M300.0,-60.0 L420.0,-60.0" stroke="blue" stroke-width="1" />
<path d="M300.0,-60.0 L420.0,-120.0" stroke="red" stroke-width="1" />
<path d="M300.0,-120.0 L420.0,-60.0" stroke="red" stroke-width="1" />
<path d="M300.0,-90.0 L420.0,-90.0" stroke="blue" stroke-width="1" />
<path d="M300.0,-120.0 L420.0,-120.0" stroke="blue" stroke-width="1" />
<path d="M300.0,-120.0 L420.0,-200.0" stroke="red" stroke-width="1" />
<path d="M300.0,-200.0 L420.0,-120.0" stroke="red" stroke-width="1" />
<path d="M300.0,-160.0 L420.0,-160.0" stroke="blue" stroke-width="1" />
<path d="M300.0,-200.0 L420.0,-200.0" stroke="blue" stroke-width="1" />
<path d="M300.0,-200.0 L420.0,-300.0" stroke="red" stroke-width="1" />
<path d="M300.0,-300.0 L420.0,-200.0" stroke="red" stroke-width="1" />
<path d="M300.0,-250.0 L420.0,-250.0" stroke="blue" stroke-width="1" />
<path d="M300.0,-300.0 L420.0,-300.0" stroke="blue" stroke-width="1" />
<path d="M300.0,-300.0 L420.0,-420.0" stroke="red" stroke-width="1" />
<path d="M300.0,-420.0 L420.0,-300.0" stroke="red" stroke-width="1" />
<path d="M300.0,-360.0 L420.0,-360.0" stroke="blue" stroke-width="1" />
<path d="M300.0,-420.0 L420.0,-420.0" stroke="blue" stroke-width="1" />
<path d="M300.0,-420.0 L420.0,-560.0" stroke="red" stroke-width="1" />
<path d="M300.0,-560.0 L420.0,-420.0" stroke="red" stroke-width="1" />
<path d="M300.0,-490.0 L420.0,-490.0" stroke="blue" stroke-width="1" />
<path d="M300.0,-560.0 L420.0,-560.0" stroke="blue" stroke-width="1" />
<path d="M300.0,-560.0 L420.0,-720.0" stroke="red" stroke-width="1" />
<path d="M300.0,-720.0 L420.0,-560.0" stroke="red" stroke-width="1" />
<path d="M300.0,-640.0 L420.0,-640.0" stroke="blue" stroke-width="1" />
<path d="M300.0,-720.0 L420.0,-720.0" stroke="blue" stroke-width="1" />
<path d="M300.0,-720.0 L420.0,-900.0" stroke="red" stroke-width="1" />
<path d="M300.0,-900.0 L420.0,-720.0" stroke="red" stroke-width="1" />
<path d="M300.0,-810.0 L420.0,-810.0" stroke="blue" stroke-width="1" />
<path d="M300.0,-900.0 L420.0,-900.0" stroke="blue" stroke-width="1" />
<path d="M420.0,0 L560.0,-20.0" stroke="red" stroke-width="1" />
<path d="M420.0,-20.0 L560.0,0" stroke="red" stroke-width="1" />
<path d="M420.0,-10.0 L560.0,-10.0" stroke="blue" stroke-width="1" />
<path d="M420.0,-20.0 L560.0,-20.0" stroke="blue" stroke-width="1" />
<path d="M420.0,-20.0 L560.0,-60.0" stroke="red" stroke-width="1" />
<path d="M420.0,-60.0 L560.0,-20.0" stroke="red" stroke-width="1" />
<path d="M420.0,-40.0 L560.0,-40.0" stroke="blue" stroke-width="1" />
<path d="M420.0,-60.0 L560.0,-60.0" stroke="blue" stroke-width="1" />
<path d="M420.0,-60.0 L560.0,-120.0" stroke="red" stroke-width="1" />
<path d="M420.0,-120.0 L560.0,-60.0" stroke="red" stroke-width="1" />
<path d="M420.0,-90.0 L560.0,-90.0" stroke="blue" stroke-width="1" />
<path d="M420.0,-120.0 L560.0,-120.0" stroke="blue" stroke-width="1" />
<path d="M420.0,-120.0 L560.0,-200.0" stroke="red" stroke-width="1" />
<path d="M420.0,-200.0 L560.0,-120.0" stroke="red" stroke-width="1" />
<path d="M420.0,-160.0 L560.0,-160.0" stroke="blue" stroke-width="1" />
<path d="M420.0,-200.0 L560.0,-200.0" stroke="blue" stroke-width="1" />
<path d="M420.0,-200.0 L560.0,-300.0" stroke="red" stroke-width="1" />
<path d="M420.0,-300.0 L560.0,-200.0" stroke="red" stroke-width="1" />
<path d="M420.0,-250.0 L560.0,-250.0" stroke="blue" stroke-width="1" />
<path d="M420.0,-300.0 L560.0,-300.0" stroke="blue" stroke-width="1" />
<path d="M420.0,-300.0 L560.0,-420.0" stroke="red" stroke-width="1" />
<path d="M420.0,-420.0 L560.0,-300.0" stroke="red" stroke-width="1" />
<path d="M420.0,-360.0 L560.0,-360.0" stroke="blue" stroke-width="1" />
<path d="M420.0,-420.0 L560.0,-420.0" stroke="blue" stroke-width="1" />
<path d="M420.0,-420.0 L560.0,-560.0" stroke="red" stroke-width="1" />
<path d="M420.0,-560.0 L560.0,-420.0" stroke="red" stroke-width="1" />
<path d="M420.0,-490.0 L560.0,-490.0" stroke="blue" stroke-width="1" />
<path d="M420.0,-560.0 L560.0,-560.0" stroke="blue" stroke-width="1" />
<path d="M420.0,-560.0 L560.0,-720.0" stroke="red" stroke-width="1" />
<path d="M420.0,-720.0 L560.0,-560.0" stroke="red" stroke-width="1" />
<path d="M420.0,-640.0 L560.0,-640.0" stroke="blue" stroke-width="1" />
<path d="M420.0,-720.0 L560.0,-720.0" stroke="blue" stroke-width="1" />
<path d="M420.0,-720.0 L560.0,-900.0" stroke="red" stroke-width="1" />
<path d="M420.0,-900.0 L560.0,-720.0" stroke="red" stroke-width="1" />
<path d="M420.0,-810.0 L560.0,-810.0" stroke="blue" stroke-width="1" />
<path d="M420.0,-900.0 L560.0,-900.0" stroke="blue" stroke-width="1" />
<path d="M560.0,0 L720.0,-20.0" stroke="red" stroke-width="1" />
<path d="M560.0,-20.0 L720.0,0" stroke="red" stroke-width="1" />
<path d="M560.0,-10.0 L720.0,-10.0" stroke="blue" stroke-width="1" />
<path d="M560.0,-20.0 L720.0,-20.0" stroke="blue" stroke-width="1" />
<path d="M560.0,-20.0 L720.0,-60.0" stroke="red" stroke-width="1" />
<path d="M560.0,-60.0 L720.0,-20.0" stroke="red" stroke-width="1" />
<path d="M560.0,-40.0 L720.0,-40.0" stroke="blue" stroke-width="1" />
<path d="M560.0,-60.0 L720.0,-60.0" stroke="blue" stroke-width="1" />
<path d="M560.0,-60.0 L720.0,-120.0" stroke="red" stroke-width="1" />
<path d="M560.0,-120.0 L720.0,-60.0" stroke="red" stroke-width="1" />
<path d="M560.0,-90.0 L720.0,-90.0" stroke="blue" stroke-width="1" />
<path d="M560.0,-120.0 L720.0,-120.0" stroke="blue" stroke-width="1" />
<path d="M560.0,-120.0 L720.0,-200.0" stroke="red" stroke-width="1" />
<path d="M560.0,-200.0 L720.0,-120.0" stroke="red" stroke-width="1" />
<path d="M560.0,-160.0 L720.0,-160.0" stroke="blue" stroke-width="1" />
<path d="M560.0,-200.0 L720.0,-200.0" stroke="blue" stroke-width="1" />
<path d="M560.0,-200.0 L720.0,-300.0" stroke="red" stroke-width="1" />
<path d="M560.0,-300.0 L720.0,-200.0" stroke="red" stroke-width="1" />
<path d="M560.0,-250.0 L720.0,-250.0" stroke="blue" stroke-width="1" />
<path d="M560.0,-300.0 L720.0,-300.0" stroke="blue" stroke-width="1" />
<path d="M560.0,-300.0 L720.0,-420.0" stroke="red" stroke-width="1" />
<path d="M560.0,-420.0 L720.0,-300.0" stroke="red" stroke-width="1" />
<path d="M560.0,-360.0 L720.0,-360.0" stroke="blue" stroke-width="1" />
<path d="M560.0,-420.0 L720.0,-420.0" stroke="blue" stroke-width="1" />
<path d="M560.0,-420.0 L720.0,-560.0" stroke="red" stroke-width="1" />
<path d="M560.0,-560.0 L720.0,-420.0" stroke="red" stroke-width="1" />
<path d="M560.0,-490.0 L720.0,-490.0" stroke="blue" stroke-width="1" />
<path d="M560.0,-560.0 L720.0,-560.0" stroke="blue" stroke-width="1" />
<path d="M560.0,-560.0 L720.0,-720.0" stroke="red" stroke-width="1" />
<path d="M560.0,-720.0 L720.0,-560.0" stroke="red" stroke-width="1" />
<path d="M560.0,-640.0 L720.0,-640.0" stroke="blue" stroke-width="1" />
<path d="M560.0,-720.0 L720.0,-720.0" stroke="blue" stroke-width="1" />
<path d="M560.0,-720.0 L720.0,-900.0" stroke="red" stroke-width="1" />
<path d="M560.0,-900.0 L720.0,-720.0" stroke="red" stroke-width="1" />
<path d="M560.0,-810.0 L720.0,-810.0" stroke="blue" stroke-width="1" />
<path d="M560.0,-900.0 L720.0,-900.0" stroke="blue" stroke-width="1" />
<path d="M720.0,0 L900.0,-20.0" stroke="red" stroke-width="1" />
<path d="M720.0,-20.0 L900.0,0" stroke="red" stroke-width="1" />
<path d="M720.0,-10.0 L900.0,-10.0" stroke="blue" stroke-width="1" />
<path d="M720.0,-20.0 L900.0,-20.0" stroke="blue" stroke-width="1" />
<path d="M720.0,-20.0 L900.0,-60.0" stroke="red" stroke-width="1" />
<path d="M720.0,-60.0 L900.0,-20.0" stroke="red" stroke-width="1" />
<path d="M720.0,-40.0 L900.0,-40.0" stroke="blue" stroke-width="1" />
<path d="M720.0,-60.0 L900.0,-60.0" stroke="blue" stroke-width="1" />
<path d="M720.0,-60.0 L900.0,-120.0" stroke="red" stroke-width="1" />
<path d="M720.0,-120.0 L900.0,-60.0" stroke="red" stroke-width="1" />
<path d="M720.0,-90.0 L900.0,-90.0" stroke="blue" stroke-width="1" />
<path d="M720.0,-120.0 L900.0,-120.0" stroke="blue" stroke-width="1" />
<path d="M720.0,-120.0 L900.0,-200.0" stroke="red" stroke-width="1" />
<path d="M720.0,-200.0 L900.0,-120.0" stroke="red" stroke-width="1" />
<path d="M720.0,-160.0 L900.0,-160.0" stroke="blue" stroke-width="1" />
<path d="M720.0,-200.0 L900.0,-200.0" stroke="blue" stroke-width="1" />
<path d="M720.0,-200.0 L900.0,-300.0" stroke="red" stroke-width="1" />
<path d="M720.0,-300.0 L900.0,-200.0" stroke="red" stroke-width="1" />
<path d="M720.0,-250.0 L900.0,-250.0" stroke="blue" stroke-width="1" />
<path d="M720.0,-300.0 L900.0,-300.0" stroke="blue" stroke-width="1" />
<path d="M720.0,-300.0 L900.0,-420.0" stroke="red" stroke-width="1" />
<path d="M720.0,-420.0 L900.0,-300.0" stroke="red" stroke-width="1" />
<path d="M720.0,-360.0 L900.0,-360.0" stroke="blue" stroke-width="1" />
<path d="M720.0,-420.0 L900.0,-420.0" stroke="blue" stroke-width="1" />
<path d="M720.0,-420.0 L900.0,-560.0" stroke="red" stroke-width="1" />
<path d="M720.0,-560.0 L900.0,-420.0" stroke="red" stroke-width="1" />
<path d="M720.0,-490.0 L900.0,-490.0" stroke="blue" stroke-width="1" />
<path d="M720.0,-560.0 L900.0,-560.0" stroke="blue" stroke-width="1" />
<path d="M720.0,-560.0 L900.0,-720.0" stroke="red" stroke-width="1" />
<path d="M720.0,-720.0 L900.0,-560.0" stroke="red" stroke-width="1" />
<path d="M720.0,-640.0 L900.0,-640.0" stroke="blue" stroke-width="1" />
<path d="M720.0,-720.0 L900.0,-720.0" stroke="blue" stroke-width="1" />
<path d="M720.0,-720.0 L900.0,-900.0" stroke="red" stroke-width="1" />
<path d="M720.0,-900.0 L900.0,-720.0" stroke="red" stroke-width="1" />
<path d="M720.0,-810.0 L900.0,-810.0" stroke="blue" stroke-width="1" />
<path d="M720.0,-900.0 L900.0,-900.0" stroke="blue" stroke-width="1" />
</svg>